<svg xmlns="http://www.w3.org/2000/svg" viewBox="0 0 166.51 116">
  <defs>
    <style>
      .cls-1, .cls-2 {
        font-size: 36px;
        font-family: JosefinSans-Thin, Josefin Sans;
      }

      .cls-1, .cls-3 {
        letter-spacing: 0.05em;
      }

      .cls-2 {
        letter-spacing: -0.04em;
      }

      .cls-4 {
        fill: #fcf79a;
      }

      .cls-5 {
        fill: #ea9bab;
      }

      .cls-6 {
        fill: #c66d85;
      }

      .cls-7 {
        fill: #3b9b3f;
      }
    </style>
  </defs>
  <title>logo</title>
  <g id="图层_2" data-name="图层 2">
    <g id="图层_1-2" data-name="图层 1">
      <g>
        <text class="cls-1" transform="translate(0 42.02)">Beauty <tspan x="0" y="43.2" xml:space="preserve">  </tspan></text>
        <text class="cls-2" transform="translate(38.37 83.61)">T<tspan class="cls-3" x="19.08" y="0">win</tspan></text>
        <g id="Rose">
          <path class="cls-4" d="M139.9,12.74a2.14,2.14,0,0,1-1.36-.6,7.21,7.21,0,0,1-1.06-1.2,13,13,0,0,1-1.63-3.07,7.41,7.41,0,0,1-.4-3.87,5.24,5.24,0,0,1,1-2.26A4.55,4.55,0,0,1,137.75.6a4.2,4.2,0,0,1,4.3,0,4.52,4.52,0,0,1,1.29,1.14,5.21,5.21,0,0,1,1,2.26A7.36,7.36,0,0,1,144,7.87a13,13,0,0,1-1.64,3.08,7.21,7.21,0,0,1-1.06,1.2A2.15,2.15,0,0,1,139.9,12.74Zm0,0a1.51,1.51,0,0,0,1.21-.74,2.91,2.91,0,0,0,.44-1.36,5.3,5.3,0,0,0-.61-2.77,7.24,7.24,0,0,0-1.42-2c-.23-.21-.44-.34-.5-.29s0,.1.15.19a1.42,1.42,0,0,0,1.45,0c.14-.1.17-.18.14-.2s-.28.09-.5.3a7.12,7.12,0,0,0-1.42,2,5.29,5.29,0,0,0-.6,2.77,2.91,2.91,0,0,0,.45,1.36A1.52,1.52,0,0,0,139.9,12.74Z"/>
          <g>
            <path class="cls-5" d="M145.53,22.49a14.52,14.52,0,0,1,.58,13.57,13.81,13.81,0,0,1-4.72,5.47,13.64,13.64,0,0,1-7,2.3,14.56,14.56,0,0,1-7.34-1.7,14.85,14.85,0,0,1-5.54-5.24,45.63,45.63,0,0,1-3.13-6.49c-.89-2.19-1.67-4.41-2.37-6.67s-1.31-4.55-1.8-6.9a37.18,37.18,0,0,1-.86-7.35,14.94,14.94,0,0,1,.57-4.11,7,7,0,0,1,.42-1.11,7,7,0,0,1,.63-1.13,7.91,7.91,0,0,1,.91-1.09,6.42,6.42,0,0,1,1.23-.88,5.57,5.57,0,0,1,1.37-.54,6.21,6.21,0,0,1,1.35-.22,8.9,8.9,0,0,1,2.39.18A16.45,16.45,0,0,1,126,2c4.53,2.39,7.89,5.8,11,9.34,1.55,1.78,3,3.6,4.45,5.44A62.69,62.69,0,0,1,145.53,22.49Zm-.43.26a30,30,0,0,0-4.56-5.1,58.22,58.22,0,0,0-5.35-4.3c-1.86-1.33-3.75-2.58-5.66-3.74a47.13,47.13,0,0,0-5.69-3.06,11.51,11.51,0,0,0-2.68-.87,2.65,2.65,0,0,0-1.62.08c-.21.06-.54.47-.81,1.22a10.59,10.59,0,0,0-.5,2.7,31.87,31.87,0,0,0,.28,6.41c.31,2.19.75,4.39,1.28,6.57S121,27,121.72,29.15a42.72,42.72,0,0,0,2.54,6.11,11.59,11.59,0,0,0,10.06,6.08,12.52,12.52,0,0,0,10.87-5.77,13,13,0,0,0,1.37-3,12.25,12.25,0,0,0,.46-3.34A12.11,12.11,0,0,0,145.1,22.76Z"/>
            <path class="cls-6" d="M134.7,22.76a12.11,12.11,0,0,0-1.91,6.43,12.25,12.25,0,0,0,.46,3.34,13,13,0,0,0,1.37,3,12.52,12.52,0,0,0,10.87,5.77,11.59,11.59,0,0,0,10.06-6.08,42.72,42.72,0,0,0,2.54-6.11c.73-2.13,1.36-4.3,1.91-6.48s1-4.39,1.28-6.57a31.87,31.87,0,0,0,.28-6.41,10.59,10.59,0,0,0-.5-2.7c-.26-.75-.59-1.16-.81-1.22a2.65,2.65,0,0,0-1.62-.08,11.51,11.51,0,0,0-2.68.87,47.13,47.13,0,0,0-5.69,3.06c-1.9,1.16-3.8,2.41-5.66,3.74a58.22,58.22,0,0,0-5.35,4.3A30,30,0,0,0,134.7,22.76Zm-.43-.26a62.68,62.68,0,0,1,4.08-5.68c1.43-1.84,2.91-3.66,4.45-5.44,3.11-3.54,6.47-6.95,11-9.34A16.45,16.45,0,0,1,157.64.62,8.9,8.9,0,0,1,160,.43a6.21,6.21,0,0,1,1.35.22,5.57,5.57,0,0,1,1.37.54,6.42,6.42,0,0,1,1.23.88,7.91,7.91,0,0,1,.91,1.09,7,7,0,0,1,.63,1.13,7,7,0,0,1,.42,1.11,14.94,14.94,0,0,1,.57,4.11,37.18,37.18,0,0,1-.86,7.35c-.48,2.35-1.09,4.64-1.8,6.9s-1.48,4.48-2.37,6.67a45.63,45.63,0,0,1-3.13,6.49,14.85,14.85,0,0,1-5.54,5.24,14.56,14.56,0,0,1-7.34,1.7,13.64,13.64,0,0,1-7-2.3,13.81,13.81,0,0,1-4.72-5.47A14.52,14.52,0,0,1,134.28,22.49Z"/>
          </g>
          <path class="cls-7" d="M140.08,46c.29,2.63.48,5.25.73,7.88l.3,3.94.25,3.94c.08,1.31.22,2.63.35,3.94a23,23,0,0,1,0,3.94,36.25,36.25,0,0,1-.54,3.94,22.38,22.38,0,0,1-1.11,3.94h-.36a22.38,22.38,0,0,1-1.11-3.94,36.25,36.25,0,0,1-.54-3.94,23,23,0,0,1,0-3.94c.12-1.31.27-2.63.35-3.94l.25-3.94.3-3.94c.25-2.63.44-5.25.73-7.88Z"/>
          <path class="cls-7" d="M141.57,60c1-1,2.14-2,3.23-2.9l1.66-1.37,1.69-1.31c.57-.43,1.09-.95,1.63-1.43a5,5,0,0,1,1.84-1,9,9,0,0,1,2.2-.4,7.79,7.79,0,0,1,2.57.27l.24.43a7.79,7.79,0,0,1-1.14,2.31A9,9,0,0,1,154,56.2a5,5,0,0,1-1.86,1c-.69.2-1.41.36-2.08.62l-2,.73-2,.67c-1.38.42-2.75.85-4.17,1.19Z"/>
          <path class="cls-7" d="M136.54,61.24a8,8,0,0,1-3.79,1.27,5.57,5.57,0,0,1-2.86-.58,5.68,5.68,0,0,1-2.16-2,8,8,0,0,1-1.23-3.8l.19-.38,1.3.54,1.28.58c.85.39,1.69.82,2.53,1.22s1.67.86,2.49,1.31l1.23.69,1.21.73Z"/>
        </g>
      </g>
    </g>
  </g>
</svg>
